# AST/ASF file generated using VICON BodyLanguage
# -----------------------------------------------
:version 1.10
:name VICON
:units
  mass 1.0
  length 0.45
  angle deg
:documentation
   .ast/.asf automatically generated from VICON data using
   VICON BodyBuilder and BodyLanguage model FoxedUp or BRILLIANT.MOD
:root
   order TX TY TZ RX RY RZ
   axis XYZ
   position 0 0 0  
   orientation 0 0 0 
:bonedata
  begin
     id 1 
     name lhipjoint
     direction 0.682418 -0.694059 0.22932 
     length 2.25561 
     axis 0 0 0  XYZ
  end
  begin
     id 2 
     name lfemur
     direction 0.34202 -0.939693 0  
     length 6.96448  
     axis 0 0 20  XYZ
    dof rx ry rz
    limits (-160.0 20.0)
           (-70.0 70.0)
           (-60.0 70.0)
  end
  begin
     id 3 
     name ltibia
     direction 0.34202 -0.939693 0   
     length 6.88553   
     axis 0 0 20   XYZ
    dof rx
    limits (-10.0 170.0)
  end
  begin
     id 4 
     name lfoot
     direction 0.0723587 -0.198804 0.977364   
     length 1.88518   
     axis -90 7.62852e-016 20   XYZ
    dof rx rz
    limits (-45.0 90.0)
           (-70.0 20.0)
  end
  begin
     id 5 
     name ltoes
     direction 1.53558e-011 -4.21962e-011 1   
     length 0.952124   
     axis -90 7.62852e-016 20   XYZ
    dof rx
    limits (-90.0 20.0)
  end
  begin
     id 6 
     name rhipjoint
     direction -0.657603 -0.71533 0.236348   
     length 2.18854  
     axis 0 0 0  XYZ 
  end
  begin
     id 7 
     name rfemur
     direction -0.34202 -0.939693 0   
     length 6.86686   
     axis 0 0 -20   XYZ
    dof rx ry rz
    limits (-160.0 20.0)
           (-70.0 70.0)
           (-70.0 60.0)
  end
  begin
     id 8 
     name rtibia
     direction -0.34202 -0.939693 0   
     length 6.59503   
     axis 0 0 -20   XYZ
    dof rx
    limits (-10.0 170.0)
 end
 begin
     id 9 
     name rfoot
     direction -0.101977 -0.280179 0.954516   
     length 1.93723  
     axis -90 -7.62852e-016 -20   XYZ
    dof rx rz
    limits (-45.0 90.0)
           (-20.0 70.0)
  end
  begin
     id 10 
     name rtoes
     direction -1.53564e-011 -4.21897e-011 1   
     length 0.970315   
     axis -90 -7.62852e-016 -20   XYZ
    dof rx
    limits (-90.0 20.0)
  end
  begin
     id 11 
     name lowerback
     direction -0.0339559 0.999421 -0.00235966   
     length 1.88543   
     axis 0 0 0   XYZ
    dof rx ry rz
    limits (-20.0 45.0)
           (-30.0 30.0)
           (-30.0 30.0)
  end
  begin
     id 12 
     name upperback
     direction 0.00401003 0.999739 0.0224689   
     length 1.8856   
     axis 0 0 0   XYZ
    dof rx ry rz
    limits (-20.0 45.0)
           (-30.0 30.0)
           (-30.0 30.0)
  end
  begin
     id 13 
     name thorax
     direction 0.0198619 0.999546 0.0226536   
     length 1.88352   
     axis 0 0 0   XYZ
    dof rx ry rz
    limits (-20.0 45.0)
           (-30.0 30.0)
           (-30.0 30.0)
  end
  begin
     id 14 
     name lowerneck
     direction -0.0461848 0.998632 0.0245198   
     length 1.34895   
     axis 0 0 0   XYZ
    dof rx ry rz
    limits (-20.0 45.0)
           (-30.0 30.0)
           (-30.0 30.0)
  end
  begin
     id 15 
     name upperneck
     direction -0.0180627 0.994724 -0.100984   
     length 1.35214   
     axis 0 0 0   XYZ
    dof rx ry rz
    limits (-20.0 45.0)
           (-30.0 30.0)
           (-30.0 30.0)
  end
  begin
     id 16
     name head
     direction -0.00374772 0.999293 -0.037403  
     length 1.3568  
     axis 0 0 0   XYZ
    dof rx ry rz
    limits (-20.0 45.0)
           (-30.0 30.0)
           (-30.0 30.0)
  end
  begin
     id 17 
     name lclavicle
     direction 0.971773 0.191119 0.138311  
     length 2.84954  
     axis 0 0 0   XYZ
    dof ry rz
    limits (-20.0 10.0)
           (0.0 20.0)
  end
  begin
     id 18 
     name lhumerus
     direction 1 -4.4897e-011 -2.43761e-027   
     length 4.40919   
     axis 180 -30 -90   XYZ
    dof rx ry rz
    limits (-60.0 90.0)
           (-90.0 90.0)
           (-90.0 90.0)
  end
  begin
     id 19
     name lradius
     direction 1 -4.4896e-011 -9.1621e-027   
     length 3.03857   
     axis 180 -30 -90   XYZ
    dof rx
    limits (-10.0 170.0)
  end
  begin
     id 20
     name lwrist
     direction 1 -4.4896e-011 -1.41363e-026   
     length 1.51928   
     axis 1.07133e-014 90 90   XYZ
    dof ry
    limits (-180.0 0.0)
 end
  begin
     id 21 
     name lhand
     direction 1 -4.48978e-011 -2.82725e-026   
     length 0.523208   
     axis 1.80403e-014 90 90   XYZ
    dof rx rz
    limits (-90.0 90.0)
           (-45.0 45.0)
  end
  begin
     id 22 
     name lfingers
     direction 1 -4.48977e-011 -5.6545e-026   
     length 0.421824   
     axis 3.60806e-014 90 90   XYZ
    dof rx
    limits (0.0 90.0)
  end
  begin
     id 23
     name lthumb
     direction 0.707107 -6.34962e-011 0.707107   
     length 0.605657   
     axis -90 45 2.85299e-015   XYZ
    dof rx rz
    limits (-45.0 45.0)
           (-45.0 45.0)
  end
  begin
     id 24 
     name rclavicle
     direction -0.957247 0.24311 0.156766   
     length 3.12406  
     axis 0 0 0   XYZ 
    dof ry rz
    limits (-10.0 20.0)
           (-20.0 0.0)
  end
  begin
     id 25 
     name rhumerus
     direction -1 -4.48964e-011 -1.70632e-027  
     length 4.61969   
     axis 180 30 90   XYZ
    dof rx ry rz
    limits (-90.0 60.0)
           (-90.0 90.0)
           (-90.0 90.0)
  end
  begin
     id 26 
     name rradius
     direction -1 -4.48966e-011 -6.60395e-027   
     length 3.09382   
     axis 180 30 90   XYZ
    dof rx
    limits (-10.0 170.0)
  end
  begin
     id 27 
     name rwrist
     direction -1 -4.48963e-011 -1.41363e-026   
     length 1.54691   
     axis 1.07133e-014 -90 -90   XYZ
    dof ry
    limits (-180.0 0.0)
  end
  begin
     id 28
     name rhand
     direction -1 -4.49013e-011 -2.82725e-026   
     length 0.500896   
     axis 1.80403e-014 -90 -90   XYZ
    dof rx rz
    limits (-90.0 90.0)
           (-45.0 45.0)
  end
  begin
     id 29
     name rfingers
     direction -1 -4.48902e-011 -5.6545e-026   
     length 0.403835   
     axis 3.60806e-014 -90 -90   XYZ
    dof rx
    limits (0.0 90.0)
  end
  begin
     id 30
     name rthumb
     direction -0.707107 -6.34953e-011 0.707107   
     length 0.579829   
     axis -90 -45 -2.85299e-015   XYZ
    dof rx rz
    limits (-45.0 45.0)
           (-45.0 45.0)
  end
:hierarchy
  begin
    root lhipjoint rhipjoint lowerback
    lhipjoint lfemur
    lfemur ltibia
    ltibia lfoot
    lfoot ltoes
    rhipjoint rfemur
    rfemur rtibia
    rtibia rfoot
    rfoot rtoes
    lowerback upperback
    upperback thorax
    thorax lowerneck lclavicle rclavicle
    lowerneck upperneck
    upperneck head
    lclavicle lhumerus
    lhumerus lradius
    lradius lwrist
    lwrist lhand lthumb
    lhand lfingers
    rclavicle rhumerus
    rhumerus rradius
    rradius rwrist
    rwrist rhand rthumb
    rhand rfingers
  end

#!OML:ASF E:\madness\Project 1\Capture day 1\Session 1\Female1.ASF
:FULLY-SPECIFIED
:DEGREES
401
root 17.3951 16.0007 -0.398458 -529.575 -37.816 537.532
lowerback -5.62462 -2.91885 -2.95291
upperback -5.18418 -4.04463 0.932461
thorax -1.93721 -2.04171 2.45183
lowerneck 3.62988 9.257 3.50908
upperneck 4.70748 12.474 -5.88671
head 1.51631 6.16848 -2.37381
rclavicle 1.75229e-013 1.98785e-014
rhumerus -57.4763 -4.42221 -46.5317
rradius 61.772
rwrist 16.4643
rhand -22.4588 -42.5001
rfingers 7.12502
rthumb 3.96576 -72.4429
lclavicle 1.75229e-013 1.98785e-014
lhumerus -47.0556 0.709315 83.1174
lradius 74.7532
lwrist -20.6652
lhand -34.6728 -23.4899
lfingers 7.12502
lthumb -7.82897 6.34519
rfemur -17.985 17.5453 17.1817
rtibia 29.0679
rfoot -21.591 -8.28634
rtoes 9.87321
lfemur -19.1312 4.01264 -19.7551
ltibia 43.0547
lfoot -18.9228 7.28437
ltoes -3.11909
402
root 17.4173 15.9999 -0.404525 -529.367 -37.7607 537.447
lowerback -5.79586 -2.94418 -2.97095
upperback -5.34454 -4.09013 1.01373
thorax -1.99966 -2.06692 2.53965
lowerneck 3.83189 9.28157 3.46855
upperneck 4.73133 12.5028 -5.80974
head 1.48235 6.1841 -2.35185
rclavicle -5.26034e-014 7.95139e-016
rhumerus -57.7696 -4.55064 -46.2283
rradius 61.6083
rwrist 16.5191
rhand -22.2729 -42.3763
rfingers 7.12502
rthumb 4.14529 -72.3157
lclavicle -5.26034e-014 7.95139e-016
lhumerus -47.3247 0.881765 83.4785
lradius 74.2352
lwrist -20.4415
lhand -34.7156 -23.258
lfingers 7.12502
lthumb -7.87032 6.57553
rfemur -18.2172 17.2787 17.1279
rtibia 29.1359
rfoot -21.7022 -7.92931
rtoes 9.45899
lfemur -18.7008 3.51107 -20.0385
ltibia 41.9842
lfoot -18.8673 8.26924
ltoes -0.0919687
403
root 17.4304 15.9907 -0.415122 -529.423 -37.4895 537.544
lowerback -5.95935 -2.87154 -2.76359
upperback -5.43021 -4.00778 1.06913
thorax -2.01235 -2.0345 2.47929
lowerneck 4.09728 9.31778 3.24049
upperneck 4.64232 12.5349 -5.67196
head 1.38359 6.20109 -2.28563
rclavicle 3.3197e-014 1.82882e-014
rhumerus -58.0127 -4.65899 -46.0647
rradius 61.3901
rwrist 16.4709
rhand -22.4339 -42.527
rfingers 7.12502
rthumb 3.98982 -72.4694
lclavicle 3.3197e-014 1.82882e-014
lhumerus -47.4894 0.976432 83.7082
lradius 73.6494
lwrist -20.4251
lhand -34.4905 -23.7084
lfingers 7.12502
lthumb -7.65305 6.1331
rfemur -18.3155 17.2334 17.2437
rtibia 29.2419
rfoot -21.8653 -7.68823
rtoes 8.67041
lfemur -18.0703 3.33601 -20.1757
ltibia 40.8781
lfoot -18.9752 9.24535
ltoes 3.41764
404
root 17.4517 15.9792 -0.423134 -529.377 -37.3141 537.714
lowerback -6.17133 -2.84162 -2.52032
upperback -5.54895 -3.98793 1.10736
thorax -2.032 -2.03632 2.37684
lowerneck 3.84665 9.33783 3.56098
upperneck 5.01142 12.5842 -5.81144
head 1.5818 6.21895 -2.36021
rclavicle 8.76143e-014 1.15295e-014
rhumerus -58.2153 -5.14381 -45.8305
rradius 61.1888
rwrist 16.872
rhand -22.192 -42.5189
rfingers 7.12502
rthumb 4.2234 -72.4568
lclavicle 8.76143e-014 1.15295e-014
lhumerus -47.6188 0.913254 83.8269
lradius 73.0714
lwrist -20.2711
lhand -34.4714 -23.7577
lfingers 7.12502
lthumb -7.63454 6.0845
rfemur -18.6167 17.3076 17.3925
rtibia 29.3972
rfoot -22.1382 -7.48515
rtoes 9.46245
lfemur -17.6154 3.14747 -20.175
ltibia 39.7253
lfoot -18.9854 10.2718
ltoes 6.66005
405
root 17.4747 15.9743 -0.429913 -529.297 -37.2516 537.793
lowerback -6.29017 -2.89362 -2.45908
upperback -5.65721 -4.06936 1.20258
thorax -2.07149 -2.08115 2.43402
lowerneck 3.59582 9.41633 3.87256
upperneck 5.31603 12.7101 -5.95416
head 1.76498 6.27673 -2.43481
rclavicle -7.0817e-014 -4.05521e-014
rhumerus -58.298 -5.82529 -45.2852
rradius 60.9648
rwrist 17.9366
rhand -20.9016 -41.7108
rfingers 7.12502
rthumb 5.46934 -71.6202
lclavicle -7.0817e-014 -4.05521e-014
lhumerus -47.7513 1.12073 84.0029
lradius 72.4459
lwrist -20.1097
lhand -34.7817 -23.2174
lfingers 7.12502
lthumb -7.93405 6.61373
rfemur -18.8652 17.3557 17.455
rtibia 29.5777
rfoot -22.5332 -7.27007
rtoes 11.3045
lfemur -17.1964 2.39835 -20.1747
ltibia 38.5928
lfoot -19.0604 12.4058
ltoes 4.24219
406
root 17.4908 15.9719 -0.438305 -529.181 -37.1106 537.788
lowerback -6.47124 -2.98956 -2.43195
upperback -5.75396 -4.2069 1.31655
thorax -2.05774 -2.15401 2.52205
lowerneck 3.35023 9.63297 4.09483
upperneck 5.7135 13.0179 -6.13119
head 1.98705 6.41888 -2.49903
rclavicle -2.65378e-014 -2.38542e-015
rhumerus -58.2044 -5.9837 -45.2399
rradius 60.7112
rwrist 17.7812
rhand -21.3237 -41.7925
rfingers 7.12502
rthumb 5.06176 -71.712
lclavicle -2.65378e-014 -2.38542e-015
lhumerus -47.8445 1.75224 84.0426
lradius 71.6645
lwrist -20.3278
lhand -34.7734 -23.1614
lfingers 7.12502
lthumb -7.92605 6.67002
rfemur -19.0337 17.3496 17.4213
rtibia 29.7
rfoot -22.858 -6.91764
rtoes 12.2106
lfemur -16.8058 1.26041 -20.1661
ltibia 37.4532
lfoot -19.6889 13.5395
ltoes 7.2302
407
root 17.5124 15.9639 -0.442165 -528.832 -37.0859 537.79
lowerback -6.76821 -3.08047 -2.35249
upperback -5.96545 -4.35208 1.41463
thorax -2.1038 -2.23643 2.56165
lowerneck 3.23692 9.83375 3.97036
upperneck 6.00382 13.2797 -5.93791
head 2.09233 6.54074 -2.39548
rclavicle 7.25564e-015 -9.93923e-015
rhumerus -58.2176 -6.13826 -45.2374
rradius 60.3696
rwrist 17.6155
rhand -22.0871 -42.0807
rfingers 7.12502
rthumb 4.32469 -72.0165
lclavicle 7.25564e-015 -9.93923e-015
lhumerus -47.9442 2.16849 84.1277
lradius 70.8568
lwrist -20.4608
lhand -34.4561 -23.5577
lfingers 7.12502
lthumb -7.61983 6.28501
rfemur -19.511 17.2529 17.3836
rtibia 29.8124
rfoot -23.0317 -6.68925
rtoes 11.5826
lfemur -16.5844 0.945838 -20.2795
ltibia 36.4318
lfoot -19.7436 14.6633
ltoes 6.96273
408
root 17.4808 15.9404 -0.482336 -530.648 -35.7373 538.216
lowerback -6.25649 -2.62158 -1.81644
upperback -5.33709 -3.70698 1.40034
thorax -1.80146 -1.91179 2.28751
lowerneck 3.13695 9.79673 3.76317
upperneck 5.94127 13.2189 -5.77108
head 2.05533 6.50979 -2.30518
rclavicle 3.55825e-014 1.03368e-014
rhumerus -58.2815 -6.35532 -45.203
rradius 60.0936
rwrist 17.5081
rhand -22.0273 -41.4117
rfingers 7.12502
rthumb 4.38243 -71.3464
lclavicle 3.55825e-014 1.03368e-014
lhumerus -47.9158 2.2832 84.4313
lradius 70.1255
lwrist -20.2147
lhand -34.258 -23.5904
lfingers 7.12502
lthumb -7.42861 6.25921
rfemur -17.7989 17.431 18.1499
rtibia 29.8781
rfoot -23.2228 -5.51648
rtoes 10.0316
lfemur -13.845 1.38423 -20.3655
ltibia 35.4875
lfoot -20.118 16.34
ltoes 7.32678
409
root 17.5002 15.933 -0.482504 -530.522 -35.9027 538.296
lowerback -6.50938 -2.65865 -1.61718
upperback -5.34079 -3.76638 1.44151
thorax -1.67127 -1.9504 2.20199
lowerneck 3.07786 9.59541 3.82351
upperneck 5.6984 12.9534 -5.86917
head 1.98327 6.38383 -2.3565
rclavicle -2.68359e-014 -7.95139e-015
rhumerus -58.3304 -6.60905 -45.1843
rradius 59.9239
rwrist 17.1755
rhand -21.9423 -41.178
rfingers 7.12502
rthumb 4.46451 -71.111
lclavicle -2.68359e-014 -7.95139e-015
lhumerus -47.746 2.32971 84.6084
lradius 69.3799
lwrist -20.1645
lhand -34.0729 -23.4097
lfingers 7.12502
lthumb -7.24996 6.44611
rfemur -18.0628 17.16 18.2573
rtibia 29.9269
rfoot -23.2845 -5.40902
rtoes 8.86836
lfemur -13.6181 0.906713 -20.386
ltibia 34.7045
lfoot -19.9932 17.2932
ltoes 7.26454
